<?xml version="1.0" standalone="no"?>
<!DOCTYPE svg PUBLIC "-//W3C//DTD SVG 20010904//EN"
 "http://www.w3.org/TR/2001/REC-SVG-20010904/DTD/svg10.dtd">
<svg version="1.0" xmlns="http://www.w3.org/2000/svg"
 width="700.000000pt" height="700.000000pt" viewBox="0 0 700.000000 700.000000"
 preserveAspectRatio="xMidYMid meet">
<metadata>
Created by potrace 1.14, written by Peter Selinger 2001-2017
</metadata>
<g transform="translate(0.000000,700.000000) scale(0.100000,-0.100000)"
fill="#000000" stroke="none">
<path d="M3435 6993 c-22 -6 -83 -48 -103 -73 -7 -8 -22 -33 -32 -55 -17 -35
-19 -65 -19 -280 0 -132 0 -269 0 -305 l-1 -64 -154 154 c-103 103 -169 161
-197 174 -106 46 -234 -4 -286 -114 -20 -43 -20 -124 1 -175 11 -24 119 -141
326 -347 l310 -311 1 -63 c0 -35 0 -131 0 -214 0 -82 0 -160 0 -172 -1 -18
-32 9 -153 129 -191 190 -230 210 -343 182 -57 -14 -118 -67 -140 -121 -22
-53 -22 -136 1 -180 9 -18 155 -173 326 -344 l309 -310 1 -308 c0 -169 -2
-309 -4 -311 -2 -3 -115 59 -188 104 -54 34 -308 177 -322 183 -10 4 -22 18
-28 30 -8 19 -82 287 -95 345 -2 10 -15 59 -29 108 -13 50 -38 144 -55 210
-51 193 -65 219 -138 262 -142 83 -324 -18 -325 -181 0 -31 20 -124 51 -240
28 -104 49 -191 47 -194 -3 -2 -22 6 -43 18 -21 13 -56 33 -78 45 -22 13 -94
54 -159 92 -134 78 -120 60 -165 228 -12 44 -39 145 -60 225 -22 80 -56 208
-76 285 -20 77 -46 159 -58 183 -51 104 -185 146 -291 91 -46 -24 -70 -50 -96
-104 -34 -69 -31 -87 63 -437 13 -49 23 -88 22 -88 -1 0 -109 62 -241 138
-291 168 -297 170 -359 170 -155 -2 -260 -164 -196 -304 27 -60 56 -84 198
-165 70 -41 140 -81 154 -89 15 -8 70 -40 123 -70 53 -30 96 -58 96 -61 0 -3
-24 -11 -52 -18 -114 -29 -334 -89 -359 -99 -40 -16 -96 -79 -112 -126 -45
-131 42 -268 183 -289 30 -5 89 8 330 73 102 27 268 72 370 99 l185 50 203
-117 c155 -89 198 -119 185 -124 -10 -5 -102 -30 -204 -58 -204 -54 -244 -72
-282 -128 -83 -120 -32 -285 102 -330 56 -19 108 -14 266 29 83 22 159 42 170
44 11 3 70 19 130 36 61 17 117 32 125 34 8 2 68 17 133 35 l117 31 137 -78
c75 -43 153 -87 172 -98 20 -11 64 -37 99 -58 35 -20 65 -37 68 -37 3 0 18
-10 34 -21 l29 -22 -122 -70 c-67 -38 -135 -78 -152 -88 -16 -10 -37 -22 -45
-26 -8 -4 -60 -34 -115 -66 l-100 -59 -45 12 c-25 7 -101 27 -170 45 -69 18
-237 63 -375 100 -212 57 -259 67 -307 62 -184 -16 -258 -240 -124 -371 37
-35 66 -47 216 -86 125 -33 253 -69 256 -73 8 -8 -394 -230 -413 -229 -13 1
-89 20 -170 42 -302 82 -378 102 -393 105 -8 2 -66 17 -128 34 -62 17 -130 33
-150 35 -127 12 -243 -108 -229 -240 5 -50 47 -126 85 -152 38 -26 65 -35 262
-87 96 -26 178 -50 182 -53 6 -7 -55 -44 -236 -145 -28 -16 -62 -36 -76 -45
-14 -9 -34 -22 -45 -28 -11 -6 -45 -25 -75 -42 -101 -56 -141 -112 -146 -202
-6 -119 83 -220 200 -226 27 -1 65 4 85 11 20 7 145 76 279 153 133 77 242
135 242 129 0 -7 -23 -97 -50 -201 -61 -225 -63 -272 -16 -343 77 -118 234
-135 332 -37 47 47 48 49 134 369 64 236 57 210 73 275 45 170 69 256 75 262
15 15 393 230 397 226 3 -2 0 -21 -6 -42 -6 -21 -12 -46 -14 -55 -7 -27 -32
-122 -55 -206 -28 -105 -31 -138 -14 -195 53 -180 319 -201 399 -33 14 30 50
144 60 193 17 82 175 654 182 661 5 4 82 50 173 102 91 52 208 120 260 150 52
30 96 54 98 52 2 -2 3 -142 4 -311 l0 -307 -312 -312 c-284 -284 -314 -317
-330 -365 -42 -123 26 -249 152 -280 106 -27 145 -5 336 183 l152 152 1 -75
c0 -72 0 -316 -1 -371 0 -21 -64 -90 -310 -337 -207 -207 -316 -324 -327 -349
-20 -47 -19 -126 1 -173 46 -106 176 -159 283 -115 24 10 96 74 196 173 l157
157 1 -50 c0 -28 0 -162 0 -298 0 -275 6 -310 61 -366 114 -116 294 -83 359
66 16 37 18 72 18 280 0 131 0 267 1 303 l0 64 155 -154 c85 -85 172 -163 192
-173 59 -28 161 -19 210 19 21 15 43 35 50 44 47 58 59 153 29 224 -11 27
-112 135 -326 349 l-310 311 -1 75 c-1 173 1 384 4 388 2 2 66 -60 143 -138
76 -77 157 -151 179 -164 146 -87 328 16 328 185 0 33 -7 69 -17 90 -10 19
-157 175 -327 346 l-310 310 0 308 c0 169 1 309 3 311 2 2 122 -66 268 -150
l265 -154 16 -53 c9 -29 27 -91 39 -138 12 -47 30 -114 40 -150 10 -36 41
-153 70 -260 28 -107 56 -208 63 -225 40 -108 161 -166 272 -132 51 15 110 70
130 119 22 56 21 115 -4 208 -40 149 -81 305 -81 312 0 4 48 -22 108 -56 59
-35 150 -88 203 -119 77 -45 98 -62 103 -84 4 -15 14 -53 22 -83 18 -63 13
-45 99 -370 96 -358 102 -376 138 -417 105 -120 300 -87 362 61 26 61 21 106
-34 310 -28 105 -51 196 -51 203 0 7 31 -6 78 -33 42 -26 100 -59 127 -74 28
-15 101 -57 164 -94 147 -86 168 -95 233 -91 117 6 198 88 204 205 3 58 -16
116 -52 156 -16 18 -198 134 -210 134 -3 0 -95 53 -154 90 -8 5 -36 20 -62 34
-82 44 -110 64 -101 69 5 3 46 15 91 27 189 48 324 90 352 110 39 28 77 94 86
148 19 121 -82 242 -205 244 -25 1 -109 -15 -186 -36 -77 -21 -171 -46 -210
-56 -38 -10 -113 -30 -165 -44 -52 -14 -144 -39 -204 -55 l-109 -28 -57 31
c-123 68 -349 201 -346 204 4 3 130 40 161 47 11 2 47 11 80 20 33 9 65 18 70
19 105 23 168 64 201 129 60 114 8 253 -113 304 -51 21 -105 16 -262 -26 -80
-22 -189 -51 -241 -65 -52 -14 -156 -41 -230 -61 -74 -20 -142 -38 -150 -40
-8 -2 -27 -6 -41 -10 -21 -5 -43 3 -100 38 -41 24 -108 63 -149 87 -41 24
-128 74 -194 113 l-118 69 48 27 c62 34 117 65 229 131 88 51 121 70 218 125
l47 27 158 -42 c86 -23 171 -46 187 -51 130 -41 490 -129 525 -129 152 1 256
168 190 305 -39 82 -76 107 -205 141 -124 32 -221 58 -263 71 l-54 15 56 33
c30 19 75 45 99 58 24 14 91 52 148 86 l104 60 220 -59 c121 -33 229 -62 240
-64 12 -2 52 -13 90 -24 294 -84 318 -87 390 -61 189 69 189 337 0 407 -16 6
-57 18 -90 27 -33 9 -94 25 -135 36 -41 11 -93 25 -115 30 -58 15 -60 23 -13
48 24 12 140 79 258 148 227 132 260 159 281 236 12 45 4 118 -17 159 -45 86
-151 133 -246 107 -35 -9 -276 -142 -490 -270 -30 -18 -48 -24 -48 -16 0 11
32 135 81 312 36 130 23 203 -50 274 -95 93 -259 72 -330 -42 -15 -25 -241
-831 -241 -861 0 -9 -399 -240 -405 -234 -3 3 17 87 44 189 58 216 63 249 45
309 -49 160 -266 202 -374 72 -32 -38 -41 -65 -95 -272 -19 -74 -42 -157 -49
-185 -8 -27 -31 -113 -52 -190 -71 -272 -52 -237 -162 -300 -53 -31 -173 -100
-267 -154 -93 -54 -171 -98 -173 -96 -2 1 -3 141 -3 311 l0 308 315 315 c289
291 315 320 329 366 8 28 13 68 10 89 -16 149 -181 237 -318 169 -16 -8 -99
-83 -182 -166 -111 -110 -153 -146 -154 -132 0 11 0 117 0 236 l1 216 305 304
c205 204 312 318 326 347 67 136 -22 297 -171 309 -99 9 -118 -3 -297 -180
-90 -89 -163 -157 -163 -152 0 6 -1 143 -1 305 -1 313 -2 317 -51 391 -27 39
-90 69 -155 74 -32 2 -67 1 -78 -2z"/>
</g>
</svg>
